{
  "source": "C:\\Users\\Peter\\Desktop\\stuff\\MIUN\\quantitative_research\\video_compression\\videos\\HEVC_CLASS_B\\BQTerrace_1920x1080_60.y4m",
  "output": "C:\\Users\\Peter\\Desktop\\stuff\\MIUN\\quantitative_research\\video_compression\\compressed_videos\\HEVC_CLASS_B\\h264\\2.5\\BQTerrace_1920x1080_60_h264.mp4",
  "codec": "h264",
  "ok": "Input #0, yuv4mpegpipe, from 'C:\\Users\\Peter\\Desktop\\stuff\\MIUN\\quantitative_research\\video_compression\\videos\\HEVC_CLASS_B\\BQTerrace_1920x1080_60.y4m':\n  Duration: 00:00:10.00, start: 0.000000, bitrate: 1492994 kb/s\n  Stream #0:0: Video: rawvideo (I420 / 0x30323449), yuv420p(progressive), 1920x1080, 60 fps, 60 tbr, 60 tbn\n[out#0/mp4 @ 000001feeb0c9a40] Codec AVOption b:a (set bitrate (in bits/s)) has not been used for any stream. The most likely reason is either wrong type (e.g. a video option with no video streams) or that it is a private option of some decoder which was not actually used for any stream.\nStream mapping:\n  Stream #0:0 -> #0:0 (rawvideo (native) -> h264 (libx264))\nPress [q] to stop, [?] for help\n[libx264 @ 000001feeb0ccac0] using cpu capabilities: MMX2 SSE2Fast SSSE3 SSE4.2 AVX FMA3 BMI2 AVX2\n[libx264 @ 000001feeb0ccac0] profile High, level 5.0, 4:2:0, 8-bit\n[libx264 @ 000001feeb0ccac0] 264 - core 165 r3222 b35605a - H.264/MPEG-4 AVC codec - Copyleft 2003-2025 - http://www.videolan.org/x264.html - options: cabac=1 ref=5 deblock=1:0:0 analyse=0x3:0x113 me=hex subme=8 psy=1 psy_rd=1.00:0.00 mixed_ref=1 me_range=16 chroma_me=1 trellis=2 8x8dct=1 cqm=0 deadzone=21,11 fast_pskip=1 chroma_qp_offset=-2 threads=18 lookahead_threads=3 sliced_threads=0 nr=0 decimate=1 interlaced=0 bluray_compat=0 constrained_intra=0 bframes=3 b_pyramid=2 b_adapt=1 b_bias=0 direct=3 weightb=1 open_gop=0 weightp=2 keyint=250 keyint_min=25 scenecut=40 intra_refresh=0 rc_lookahead=50 rc=cbr mbtree=1 bitrate=2500 ratetol=1.0 qcomp=0.60 qpmin=0 qpmax=69 qpstep=4 vbv_maxrate=2500 vbv_bufsize=2500 nal_hrd=none filler=0 ip_ratio=1.40 aq=1:1.00\nOutput #0, mp4, to 'C:\\Users\\Peter\\Desktop\\stuff\\MIUN\\quantitative_research\\video_compression\\compressed_videos\\HEVC_CLASS_B\\h264\\2.5\\BQTerrace_1920x1080_60_h264.mp4':\n  Metadata:\n    encoder         : Lavf62.3.100\n  Stream #0:0: Video: h264 (avc1 / 0x31637661), yuv420p(tv, progressive), 1920x1080, q=2-31, 2500 kb/s, 60 fps, 15360 tbn\n    Metadata:\n      encoder         : Lavc62.11.100 libx264\n    Side data:\n      cpb: bitrate max/min/avg: 2500000/0/2500000 buffer size: 2500000 vbv_delay: N/A\nframe=    0 fps=0.0 q=0.0 size=       0KiB time=N/A bitrate=N/A speed=N/A elapsed=0:00:00.52    \nframe=    0 fps=0.0 q=0.0 size=       0KiB time=N/A bitrate=N/A speed=N/A elapsed=0:00:01.05    \nframe=    0 fps=0.0 q=0.0 size=       0KiB time=N/A bitrate=N/A speed=N/A elapsed=0:00:01.63    \nframe=   26 fps= 12 q=40.0 size=       0KiB time=00:00:00.36 bitrate=   1.0kbits/s speed=0.165x elapsed=0:00:02.22    \nframe=   53 fps= 19 q=40.0 size=       0KiB time=00:00:00.83 bitrate=   0.5kbits/s speed=0.293x elapsed=0:00:02.84    \nframe=   80 fps= 23 q=40.0 size=     256KiB time=00:00:01.23 bitrate=1700.7kbits/s speed=0.36x elapsed=0:00:03.42    \nframe=  100 fps= 25 q=39.0 size=     256KiB time=00:00:01.63 bitrate=1284.2kbits/s speed=0.409x elapsed=0:00:03.99    \nframe=  124 fps= 27 q=39.0 size=     256KiB time=00:00:01.96 bitrate=1066.5kbits/s speed=0.432x elapsed=0:00:04.55    \nframe=  148 fps= 29 q=39.0 size=     512KiB time=00:00:02.43 bitrate=1723.8kbits/s speed=0.475x elapsed=0:00:05.12    \nframe=  170 fps= 30 q=39.0 size=     512KiB time=00:00:02.78 bitrate=1507.1kbits/s speed=0.493x elapsed=0:00:05.65    \nframe=  195 fps= 32 q=40.0 size=     768KiB time=00:00:03.15 bitrate=1997.4kbits/s speed=0.511x elapsed=0:00:06.16    \nframe=  222 fps= 33 q=40.0 size=     768KiB time=00:00:03.63 bitrate=1731.7kbits/s speed=0.539x elapsed=0:00:06.74    \nframe=  233 fps= 32 q=40.0 size=     768KiB time=00:00:03.85 bitrate=1634.2kbits/s speed=0.525x elapsed=0:00:07.33    \nframe=  258 fps= 33 q=40.0 size=    1024KiB time=00:00:04.26 bitrate=1966.2kbits/s speed=0.543x elapsed=0:00:07.86    \nframe=  282 fps= 34 q=39.0 size=    1024KiB time=00:00:04.66 bitrate=1797.6kbits/s speed=0.556x elapsed=0:00:08.39    \nframe=  304 fps= 34 q=40.0 size=    1024KiB time=00:00:05.00 bitrate=1677.8kbits/s speed=0.559x elapsed=0:00:08.94    \nframe=  330 fps= 34 q=40.0 size=    1280KiB time=00:00:05.46 bitrate=1918.2kbits/s speed=0.571x elapsed=0:00:09.57    \nframe=  360 fps= 35 q=40.0 size=    1280KiB time=00:00:05.93 bitrate=1767.3kbits/s speed=0.583x elapsed=0:00:10.17    \nframe=  382 fps= 36 q=40.0 size=    1280KiB time=00:00:06.33 bitrate=1655.7kbits/s speed=0.589x elapsed=0:00:10.74    \nframe=  414 fps= 37 q=40.0 size=    1536KiB time=00:00:06.78 bitrate=1855.0kbits/s speed=0.601x elapsed=0:00:11.29    \nframe=  442 fps= 37 q=41.0 size=    1536KiB time=00:00:07.30 bitrate=1723.7kbits/s speed=0.61x elapsed=0:00:11.96    \nframe=  466 fps= 37 q=40.0 size=    1536KiB time=00:00:07.73 bitrate=1627.2kbits/s speed=0.616x elapsed=0:00:12.56    \nframe=  483 fps= 37 q=41.0 size=    1792KiB time=00:00:08.01 bitrate=1831.2kbits/s speed=0.613x elapsed=0:00:13.07    \nframe=  500 fps= 37 q=41.0 size=    1792KiB time=00:00:08.30 bitrate=1768.7kbits/s speed=0.61x elapsed=0:00:13.59    \nframe=  528 fps= 37 q=40.0 size=    1792KiB time=00:00:08.70 bitrate=1687.4kbits/s speed=0.614x elapsed=0:00:14.17    \nframe=  553 fps= 38 q=38.0 size=    2048KiB time=00:00:09.18 bitrate=1827.0kbits/s speed=0.624x elapsed=0:00:14.72    \nframe=  581 fps= 38 q=38.0 size=    2048KiB time=00:00:09.65 bitrate=1738.6kbits/s speed=0.632x elapsed=0:00:15.26    \n[mp4 @ 000001feeb0c9b40] Starting second pass: moving the moov atom to the beginning of the file\n[out#0/mp4 @ 000001feeb0c9a40] video:2319KiB audio:0KiB subtitle:0KiB other streams:0KiB global headers:0KiB muxing overhead: 0.340020%\nframe=  600 fps= 38 q=-1.0 Lsize=    2327KiB time=00:00:09.96 bitrate=1912.7kbits/s speed=0.631x elapsed=0:00:15.79    \n[libx264 @ 000001feeb0ccac0] frame I:3     Avg QP:36.99  size: 67041\n[libx264 @ 000001feeb0ccac0] frame P:151   Avg QP:37.27  size:  7902\n[libx264 @ 000001feeb0ccac0] frame B:446   Avg QP:42.90  size:  2197\n[libx264 @ 000001feeb0ccac0] consecutive B-frames:  0.8%  0.0%  0.5% 98.7%\n[libx264 @ 000001feeb0ccac0] mb I  I16..4: 32.5% 53.5% 13.9%\n[libx264 @ 000001feeb0ccac0] mb P  I16..4:  0.2%  0.3%  0.0%  P16..4: 21.7%  3.1%  2.8%  0.0%  0.0%    skip:71.9%\n[libx264 @ 000001feeb0ccac0] mb B  I16..4:  0.0%  0.0%  0.0%  B16..8: 32.1%  0.3%  0.0%  direct: 0.1%  skip:67.5%  L0:40.0% L1:59.9% BI: 0.2%\n[libx264 @ 000001feeb0ccac0] 8x8 transform intra:54.4% inter:65.8%\n[libx264 @ 000001feeb0ccac0] direct mvs  spatial:97.8% temporal:2.2%\n[libx264 @ 000001feeb0ccac0] coded y,uvDC,uvAC intra: 47.7% 30.5% 8.1% inter: 1.3% 0.6% 0.0%\n[libx264 @ 000001feeb0ccac0] i16 v,h,dc,p: 34% 28%  5% 34%\n[libx264 @ 000001feeb0ccac0] i8 v,h,dc,ddl,ddr,vr,hd,vl,hu: 12%  6% 13%  9% 10%  8% 10%  7% 25%\n[libx264 @ 000001feeb0ccac0] i4 v,h,dc,ddl,ddr,vr,hd,vl,hu: 11%  6%  9%  8%  9%  8% 11% 10% 28%\n[libx264 @ 000001feeb0ccac0] i8c dc,h,v,p: 38% 52%  8%  2%\n[libx264 @ 000001feeb0ccac0] Weighted P-Frames: Y:9.9% UV:4.6%\n[libx264 @ 000001feeb0ccac0] ref P L0: 56.1% 23.2% 12.9%  3.8%  3.7%  0.4%\n[libx264 @ 000001feeb0ccac0] ref B L0: 88.6%  8.1%  2.6%  0.7%\n[libx264 @ 000001feeb0ccac0] ref B L1: 96.3%  3.7%\n[libx264 @ 000001feeb0ccac0] kb/s:1899.28\n",
  "seconds": 16.103410005569458,
  "probe_out": {}
}